<?xml version="1.0" encoding="utf-8"?>
<!-- Generator: Adobe Illustrator 24.3.0, SVG Export Plug-In . SVG Version: 6.00 Build 0)  -->
<svg version="1.1" id="Layer_1" xmlns="http://www.w3.org/2000/svg" xmlns:xlink="http://www.w3.org/1999/xlink" x="0px" y="0px"
	 viewBox="0 0 1000 46" style="enable-background:new 0 0 1000 46;" xml:space="preserve">
<style type="text/css">
	.st0{stroke:#5CFF06;stroke-width:2;stroke-miterlimit:10;}
	.st1{stroke:#5CFF06;stroke-width:6;stroke-miterlimit:10;}
	.st2{fill:#5CFF06;}
	.st3{fill:none;stroke:#5CFF06;stroke-width:2;stroke-miterlimit:10;}
</style>
<g>
	<rect width="1000" height="46"/>
</g>
<line class="st0" x1="966.5" y1="14.5" x2="984.5" y2="32.5"/>
<line class="st0" x1="966.5" y1="32.5" x2="984.5" y2="14.5"/>
<rect x="920" y="12" class="st0" width="22" height="22"/>
<line class="st1" x1="920" y1="14.38" x2="942" y2="14.38"/>
<line class="st1" x1="885.31" y1="23.5" x2="861" y2="23.5"/>
<g>
	<g>
		<path class="st2" d="M72.48,29.01c-0.35,0.75-0.8,1.4-1.35,1.93c-0.56,0.54-1.22,0.96-1.98,1.26s-1.61,0.45-2.54,0.45
			c-0.8,0-1.53-0.11-2.18-0.34c-0.65-0.23-1.23-0.54-1.74-0.94c-0.52-0.4-0.96-0.87-1.33-1.42c-0.37-0.54-0.67-1.13-0.91-1.77
			c-0.25-0.64-0.43-1.31-0.55-2.02c-0.12-0.7-0.18-1.41-0.19-2.14v-2.71c0.01-0.72,0.07-1.43,0.19-2.14c0.12-0.7,0.3-1.37,0.55-2.02
			c0.24-0.64,0.54-1.23,0.91-1.78c0.37-0.55,0.81-1.02,1.33-1.42c0.51-0.4,1.09-0.71,1.74-0.94c0.65-0.23,1.38-0.34,2.19-0.34
			c0.97,0,1.84,0.15,2.6,0.45c0.77,0.3,1.42,0.72,1.98,1.26c0.55,0.55,0.99,1.21,1.33,1.98c0.33,0.77,0.55,1.61,0.66,2.54H70.7
			c-0.08-0.59-0.22-1.13-0.41-1.64c-0.2-0.51-0.46-0.95-0.79-1.33c-0.33-0.38-0.73-0.68-1.21-0.9c-0.48-0.22-1.04-0.33-1.69-0.33
			c-0.59,0-1.11,0.1-1.56,0.29c-0.45,0.19-0.83,0.45-1.15,0.78c-0.33,0.33-0.6,0.71-0.82,1.15c-0.22,0.44-0.39,0.9-0.53,1.39
			s-0.23,0.99-0.29,1.5c-0.06,0.51-0.09,1.01-0.09,1.49v2.74c0,0.48,0.03,0.98,0.09,1.49c0.06,0.51,0.15,1.01,0.29,1.5
			c0.13,0.5,0.31,0.97,0.52,1.4s0.48,0.82,0.81,1.15c0.33,0.34,0.72,0.6,1.16,0.79c0.44,0.19,0.97,0.29,1.56,0.29
			c0.65,0,1.21-0.1,1.69-0.31s0.88-0.49,1.21-0.87c0.33-0.36,0.59-0.8,0.79-1.3c0.2-0.5,0.33-1.05,0.41-1.63h2.47
			C73.06,27.44,72.83,28.26,72.48,29.01z"/>
		<path class="st2" d="M82.44,17.74c0.32-0.37,0.81-0.56,1.46-0.56c0.64,0,1.13,0.18,1.46,0.55c0.33,0.37,0.5,0.82,0.5,1.35
			c0,0.52-0.17,0.97-0.51,1.32c-0.34,0.36-0.82,0.53-1.45,0.53c-0.64,0-1.12-0.18-1.45-0.54s-0.49-0.8-0.49-1.31
			C81.95,18.56,82.11,18.12,82.44,17.74z M82.44,29.43c0.32-0.37,0.81-0.56,1.46-0.56c0.64,0,1.13,0.19,1.46,0.55
			c0.33,0.37,0.5,0.82,0.5,1.35c0,0.52-0.17,0.97-0.51,1.32c-0.34,0.36-0.82,0.53-1.45,0.53c-0.64,0-1.12-0.18-1.45-0.54
			s-0.49-0.8-0.49-1.31C81.95,30.26,82.11,29.81,82.44,29.43z"/>
		<path class="st2" d="M96.38,12.95l8.11,21.1h-2.23l-8.11-21.1H96.38z"/>
		<path class="st2" d="M121.69,29.01c-0.35,0.75-0.8,1.4-1.35,1.93c-0.56,0.54-1.22,0.96-1.98,1.26s-1.61,0.45-2.54,0.45
			c-0.8,0-1.53-0.11-2.18-0.34c-0.65-0.23-1.23-0.54-1.74-0.94c-0.52-0.4-0.96-0.87-1.33-1.42c-0.37-0.54-0.67-1.13-0.91-1.77
			c-0.25-0.64-0.43-1.31-0.55-2.02c-0.12-0.7-0.18-1.41-0.19-2.14v-2.71c0.01-0.72,0.07-1.43,0.19-2.14c0.12-0.7,0.3-1.37,0.55-2.02
			c0.24-0.64,0.54-1.23,0.91-1.78c0.37-0.55,0.81-1.02,1.33-1.42c0.51-0.4,1.09-0.71,1.74-0.94c0.65-0.23,1.38-0.34,2.19-0.34
			c0.97,0,1.84,0.15,2.6,0.45c0.77,0.3,1.42,0.72,1.98,1.26c0.55,0.55,0.99,1.21,1.33,1.98c0.33,0.77,0.55,1.61,0.66,2.54h-2.47
			c-0.08-0.59-0.22-1.13-0.41-1.64c-0.2-0.51-0.46-0.95-0.79-1.33c-0.33-0.38-0.73-0.68-1.21-0.9c-0.48-0.22-1.04-0.33-1.69-0.33
			c-0.59,0-1.11,0.1-1.56,0.29c-0.45,0.19-0.83,0.45-1.15,0.78c-0.33,0.33-0.6,0.71-0.82,1.15c-0.22,0.44-0.39,0.9-0.53,1.39
			s-0.23,0.99-0.29,1.5c-0.06,0.51-0.09,1.01-0.09,1.49v2.74c0,0.48,0.03,0.98,0.09,1.49c0.06,0.51,0.15,1.01,0.29,1.5
			c0.13,0.5,0.31,0.97,0.52,1.4s0.48,0.82,0.81,1.15c0.33,0.34,0.72,0.6,1.16,0.79c0.44,0.19,0.97,0.29,1.56,0.29
			c0.65,0,1.21-0.1,1.69-0.31s0.88-0.49,1.21-0.87c0.33-0.36,0.59-0.8,0.79-1.3c0.2-0.5,0.33-1.05,0.41-1.63h2.47
			C122.27,27.44,122.03,28.26,121.69,29.01z"/>
		<path class="st2" d="M127.4,19.3c0.29-0.51,0.68-0.9,1.15-1.19c0.48-0.28,1.05-0.43,1.73-0.44c0.38,0,0.73,0.04,1.03,0.13
			c0.31,0.08,0.58,0.21,0.81,0.37c0.17,0.12,0.32,0.28,0.46,0.45c0.14,0.18,0.26,0.38,0.35,0.6c0.12-0.2,0.27-0.4,0.44-0.57
			c0.17-0.18,0.35-0.33,0.55-0.47c0.25-0.15,0.53-0.27,0.83-0.36c0.31-0.09,0.64-0.14,1.01-0.15c0.5,0,0.95,0.07,1.35,0.22
			c0.4,0.15,0.74,0.36,1.01,0.65c0.3,0.32,0.53,0.74,0.69,1.25s0.24,1.11,0.24,1.81v10.78h-2.35V21.57c0-0.3-0.04-0.57-0.11-0.8
			s-0.17-0.42-0.31-0.57c-0.14-0.14-0.32-0.25-0.53-0.32c-0.21-0.07-0.45-0.11-0.73-0.11c-0.29,0-0.55,0.04-0.76,0.12
			c-0.21,0.08-0.39,0.19-0.53,0.32c-0.14,0.14-0.25,0.3-0.33,0.49c-0.08,0.18-0.13,0.39-0.16,0.61c0,0.04,0,0.09,0,0.13
			s0,0.09,0,0.14v10.81h-2.35V21.56c0-0.3-0.03-0.57-0.1-0.8c-0.07-0.23-0.17-0.42-0.31-0.57c-0.13-0.14-0.3-0.25-0.5-0.31
			c-0.2-0.07-0.43-0.1-0.7-0.1c-0.29,0-0.55,0.03-0.77,0.1c-0.22,0.07-0.4,0.16-0.55,0.29c-0.12,0.1-0.22,0.21-0.3,0.33
			s-0.15,0.26-0.21,0.4v11.49h-2.35V17.94h2.22L127.4,19.3z"/>
		<path class="st2" d="M142.54,22.07c0.27-0.9,0.66-1.68,1.17-2.33c0.5-0.65,1.1-1.16,1.81-1.52s1.51-0.55,2.39-0.55
			c0.86,0,1.62,0.15,2.26,0.43s1.2,0.71,1.67,1.26v-7.49h2.47v20.5h-2.27l-0.11-1.52c-0.48,0.59-1.05,1.03-1.72,1.33
			c-0.67,0.3-1.45,0.45-2.34,0.45c-0.87,0-1.66-0.19-2.37-0.56c-0.71-0.37-1.31-0.89-1.81-1.55c-0.5-0.66-0.89-1.43-1.16-2.33
			c-0.28-0.89-0.41-1.86-0.41-2.89v-0.28C142.13,23.97,142.27,22.98,142.54,22.07z M144.83,27.32c0.15,0.63,0.39,1.19,0.71,1.67
			c0.31,0.48,0.71,0.86,1.2,1.14c0.49,0.28,1.08,0.42,1.76,0.42c0.83,0,1.51-0.19,2.06-0.56c0.54-0.37,0.97-0.88,1.29-1.51v-6.7
			c-0.32-0.59-0.75-1.07-1.29-1.45c-0.54-0.38-1.22-0.57-2.03-0.57c-0.69,0-1.29,0.14-1.78,0.43c-0.49,0.29-0.9,0.67-1.21,1.15
			c-0.32,0.49-0.56,1.05-0.71,1.69c-0.15,0.64-0.23,1.31-0.23,2.01v0.28C144.6,26.03,144.68,26.69,144.83,27.32z"/>
		<path class="st2" d="M163.78,29.43c0.32-0.37,0.81-0.56,1.45-0.56c0.64,0,1.13,0.19,1.46,0.55s0.5,0.82,0.5,1.35
			c0,0.52-0.17,0.97-0.51,1.32c-0.34,0.36-0.82,0.53-1.45,0.53c-0.64,0-1.12-0.18-1.45-0.54s-0.49-0.8-0.49-1.31
			C163.3,30.26,163.46,29.81,163.78,29.43z"/>
		<path class="st2" d="M178.99,32.13c-0.85-0.35-1.58-0.83-2.18-1.46c-0.6-0.62-1.08-1.36-1.41-2.22c-0.34-0.85-0.51-1.78-0.51-2.79
			v-0.56c0-1.17,0.19-2.21,0.56-3.13s0.87-1.7,1.49-2.34c0.61-0.63,1.31-1.12,2.1-1.45c0.79-0.34,1.59-0.51,2.42-0.51
			c1.04,0,1.95,0.18,2.73,0.54c0.78,0.36,1.43,0.86,1.94,1.49c0.52,0.64,0.9,1.39,1.15,2.26c0.25,0.86,0.38,1.8,0.38,2.8v1.11
			h-10.32v0.09c0.06,0.7,0.2,1.32,0.42,1.86c0.22,0.53,0.52,1.01,0.9,1.41c0.39,0.44,0.86,0.78,1.41,1.03s1.16,0.37,1.83,0.37
			c0.88,0,1.66-0.18,2.35-0.53c0.69-0.36,1.25-0.83,1.71-1.41l1.51,1.17c-0.48,0.73-1.2,1.38-2.16,1.94
			c-0.96,0.56-2.14,0.85-3.54,0.85C180.77,32.65,179.84,32.48,178.99,32.13z M180.05,19.98c-0.44,0.18-0.85,0.45-1.2,0.79
			c-0.36,0.36-0.66,0.79-0.9,1.3s-0.42,1.1-0.51,1.77h7.77v-0.12c0-0.44-0.08-0.92-0.25-1.43c-0.17-0.51-0.41-0.95-0.71-1.33
			c-0.3-0.37-0.68-0.68-1.14-0.91c-0.46-0.23-1-0.35-1.63-0.35C180.97,19.7,180.5,19.79,180.05,19.98z"/>
		<path class="st2" d="M201.63,17.94h2.9l-5.38,7.14l5.53,7.3h-2.86l-3.99-5.5l-3.99,5.5h-2.88l5.53-7.3l-5.38-7.14h2.86l3.82,5.35
			L201.63,17.94z"/>
		<path class="st2" d="M211.8,32.13c-0.85-0.35-1.58-0.83-2.18-1.46c-0.6-0.62-1.08-1.36-1.41-2.22c-0.34-0.85-0.51-1.78-0.51-2.79
			v-0.56c0-1.17,0.19-2.21,0.56-3.13s0.87-1.7,1.49-2.34c0.61-0.63,1.31-1.12,2.1-1.45c0.79-0.34,1.59-0.51,2.42-0.51
			c1.04,0,1.95,0.18,2.73,0.54c0.78,0.36,1.43,0.86,1.94,1.49c0.52,0.64,0.9,1.39,1.15,2.26c0.25,0.86,0.38,1.8,0.38,2.8v1.11
			h-10.32v0.09c0.06,0.7,0.2,1.32,0.42,1.86c0.22,0.53,0.52,1.01,0.9,1.41c0.39,0.44,0.86,0.78,1.41,1.03s1.16,0.37,1.83,0.37
			c0.88,0,1.66-0.18,2.35-0.53c0.69-0.36,1.25-0.83,1.71-1.41l1.51,1.17c-0.48,0.73-1.2,1.38-2.16,1.94
			c-0.96,0.56-2.14,0.85-3.54,0.85C213.58,32.65,212.65,32.48,211.8,32.13z M212.86,19.98c-0.44,0.18-0.85,0.45-1.2,0.79
			c-0.36,0.36-0.66,0.79-0.9,1.3s-0.42,1.1-0.51,1.77h7.77v-0.12c0-0.44-0.08-0.92-0.25-1.43c-0.17-0.51-0.41-0.95-0.71-1.33
			c-0.3-0.37-0.68-0.68-1.14-0.91c-0.46-0.23-1-0.35-1.63-0.35C213.77,19.7,213.3,19.79,212.86,19.98z"/>
	</g>
</g>
<polyline class="st3" points="15,17 26.5,28.5 37.93,17.07 "/>
<line class="st0" x1="0" y1="46" x2="1000" y2="46"/>
<line class="st0" x1="0" y1="0" x2="1000" y2="0"/>
</svg>
